<svg xmlns="http://www.w3.org/2000/svg" xmlns:xlink="http://www.w3.org/1999/xlink" viewBox="0 0 400 300" width="406" height="306" class="illustration styles_illustrationTablet__1DWOa"><defs><linearGradient id="linear-gradient" x1="229.86" y1="169.25" x2="210.4" y2="187.75" gradientUnits="userSpaceOnUse"><stop offset="0" stop-color="#00a99d"></stop><stop offset="1" stop-color="#fff"></stop></linearGradient><linearGradient id="linear-gradient-2" x1="204.29" y1="131.1" x2="177.98" y2="156.12" xlink:href="#linear-gradient"></linearGradient><linearGradient id="linear-gradient-3" x1="273.73" y1="182.09" x2="247.42" y2="207.11" xlink:href="#linear-gradient"></linearGradient><linearGradient id="linear-gradient-4" x1="157.19" y1="95.66" x2="130.88" y2="120.68" xlink:href="#linear-gradient"></linearGradient><linearGradient id="linear-gradient-5" x1="141.56" y1="169.21" x2="116.59" y2="194.92" xlink:href="#linear-gradient"></linearGradient><linearGradient id="linear-gradient-6" x1="184.2" y1="201.38" x2="158.6" y2="223.32" xlink:href="#linear-gradient"></linearGradient><linearGradient id="linear-gradient-7" x1="312.9" y1="172.84" x2="286.59" y2="197.86" xlink:href="#linear-gradient"></linearGradient></defs><title>101-110</title><g style="isolation: isolate;"><g id="Layer_2" data-name="Layer 2"><path d="M325.43,221.15q-.32-.77-.63-1.54-.62-1.55-1.19-3.11a112.18,112.18,0,0,1-3.46-11.34,71.88,71.88,0,0,1-2.25-11.64c0,.23.22,1.72.1.7l-.1-.83q-.08-.62-.14-1.24-.16-1.45-.29-2.9-.25-2.9-.35-5.81a115.2,115.2,0,0,1,.19-11.85q.2-2.9.54-5.8c0-.41.1-.81.15-1.21l.05-.35q.22-1.44.47-2.87.93-5.24,2.35-10.38l51.84,29.31a9.28,9.28,0,0,1,0,16.25l-46.52,26.26-.62-1.33Z" fill="#96cf40"></path><path d="M212.5,137.56l-8.68,4.86c-1.55.87-3.08,1.75-4.64,2.6l-.5.26h-.05l-1.74-.95L192.8,142q-4.19-2.35-8.37-4.73-8.47-4.82-16.87-9.76-26.84-15.77-52.95-32.7L158.88,70a19.13,19.13,0,0,1,18.74,0L255,113.75l-24.92,14Z" fill="#96cf40"></path><path d="M195.51,238a6.48,6.48,0,0,0,2.52-.27q12.17-3.87,24.3-7.86,41.16-13.53,81.84-28.4a116.39,116.39,0,0,0,9,28.64L235.9,273.76a20.48,20.48,0,0,1-20.13,0l-23.51-13.36q1.49-9.66,2.83-19.35Q195.3,239.52,195.51,238Z" fill="#96cf40"></path><path d="M302.42,186.62q-11.31,4.14-22.66,8.19-40.88,14.55-82.23,27.77,4-31.76,6.39-63.67.76-.3,1.51-.65c3-1.42,5.86-3.22,8.75-4.84l9.15-5.12,17.83-10,28.8-16.13,37.62,21.27q-.86,2.73-1.58,5.5A121.26,121.26,0,0,0,302.42,186.62Z" fill="#96cf40"></path><path d="M21.74,147l78.45-44.08q15.66,10.28,31.59,20.15,7.7,4.77,15.47,9.44-7.93,4.76-15.83,9.56Q96,163.6,61.09,185.86L21.7,163.49A9.4,9.4,0,0,1,21.74,147Z" fill="#96cf40"></path><path d="M161.58,141l4.05,2.38q8.54,5,17.14,9.81c2.12,1.19,4.22,2.44,6.36,3.61q-.8,10.91-1.79,21.81-1.9,21-4.5,42-.64,5.21-1.33,10.41-.36,2.73-.73,5.46l0,.19-.14,1-.36,2.6q-.86,6.14-1.79,12.27l-103-58.48,3-1.92Q119.72,166.07,161.58,141Z" fill="#96cf40"></path><path d="M147.24,132.53q-7.76-4.67-15.47-9.44-15.93-9.87-31.59-20.15l14.42-8.1q26.1,16.92,52.95,32.7,8.4,4.94,16.87,9.76,4.18,2.38,8.37,4.73l4.09,2.28,1.74.95h.05l.5-.26c1.56-.85,3.1-1.73,4.64-2.6l8.68-4.86,17.59-9.85,24.92-14,14.93,8.44-28.8,16.13-17.83,10-9.15,5.12c-2.89,1.62-5.75,3.42-8.75,4.84q-.75.36-1.51.65-2.41,31.91-6.39,63.67,41.35-13.23,82.23-27.77,11.35-4,22.66-8.19A121.26,121.26,0,0,1,306,149q.72-2.77,1.58-5.5L320.88,151q-1.43,5.13-2.35,10.38-.25,1.43-.47,2.87l-.05.35c-.05.4-.11.81-.15,1.21q-.34,2.89-.54,5.8a115.2,115.2,0,0,0-.19,11.85q.1,2.91.35,5.81.12,1.45.29,2.9.07.62.14,1.24l.1.83c.12,1-.08-.47-.1-.7a71.88,71.88,0,0,0,2.25,11.64,112.18,112.18,0,0,0,3.46,11.34q.57,1.56,1.19,3.11.31.77.63,1.54l.14.33.62,1.33-13,7.33a116.39,116.39,0,0,1-9-28.64q-40.68,14.85-81.84,28.4-12.13,4-24.3,7.86a6.48,6.48,0,0,1-2.52.27q-.2,1.5-.41,3-1.34,9.68-2.83,19.35l-13.79-7.83q.92-6.13,1.79-12.27l.36-2.6.14-1,0-.19q.37-2.73.73-5.46.69-5.2,1.33-10.41,2.59-21,4.5-42,1-10.9,1.79-21.81c-2.14-1.16-4.25-2.41-6.36-3.61q-8.61-4.85-17.14-9.81L161.58,141q-41.84,25-83,51.1l-3,1.92-14.43-8.2Q96,163.61,131.41,142.09,139.32,137.29,147.24,132.53Z" fill="#96cf40"></path><path d="M233.39,179,227,173l-29.51,13.94c3,1.55,7.43,4.22,11.68,6.7A215.38,215.38,0,0,0,233.39,179Z" opacity="0.68" fill="url(#linear-gradient)" style="mix-blend-mode: multiply;"></path><path d="M209.07,144.25l-8.6-8.11L160.56,155c4.09,2.09,10,5.7,15.79,9.06A291.25,291.25,0,0,0,209.07,144.25Z" opacity="0.68" fill="url(#linear-gradient-2)" style="mix-blend-mode: multiply;"></path><path d="M278.51,195.24l-8.6-8.11L230,206c4.09,2.09,10,5.7,15.79,9.06A291.25,291.25,0,0,0,278.51,195.24Z" opacity="0.68" fill="url(#linear-gradient-3)" style="mix-blend-mode: multiply;"></path><path d="M162,108.81l-8.6-8.11-39.91,18.85c4.09,2.09,10,5.7,15.79,9.06A291.25,291.25,0,0,0,162,108.81Z" opacity="0.68" fill="url(#linear-gradient-4)" style="mix-blend-mode: multiply;"></path><rect x="152.08" y="27.88" width="3.28" height="78.62" fill="#404048"></rect><circle cx="153.46" cy="25.96" r="9.75" fill="#06b6d4"></circle><circle cx="149.06" cy="22.24" r="2.02" fill="#fff"></circle><path d="M160.86,19.62a9.66,9.66,0,0,1-4.93,12.09,9.1,9.1,0,0,1-11.55-2.2,9.75,9.75,0,1,0,16.48-9.88Z" fill="#3e3e4a" opacity="0.4"></path><path d="M157.68,86.45l3.55,21.38s-2.11,1.38-8.71,1.61-6.27-2-6.27-2l3.51-21Z" fill="#3e3e4a"></path><ellipse cx="153.72" cy="86.45" rx="3.96" ry="1.99" fill="#55555f"></ellipse><ellipse cx="153.71" cy="107.98" rx="7.52" ry="3.78" fill="#3e3e4a"></ellipse><path d="M120.64,91.46s3.57,67.38,65.94,95.44,139.61,35.91,139.61,35.91l-72.7,41s-63-3.75-132.85-51.94-51.93-91.25-51.93-91.25Z" fill="#06b6d4"></path><path d="M120.64,91.46s3.57,67.38,65.94,95.44,139.61,35.91,139.61,35.91l-72.7,41s-63-3.75-132.85-51.94-51.93-91.25-51.93-91.25Z" fill="#fff" opacity="0.76"></path><path d="M189.24,198.32c-12.55-6.79-20.75-19.06-27.21-31.4-7.18-13.71-12.2-28.56-13.78-44-.07-.63-1.07-.64-1,0a123.34,123.34,0,0,0,13.92,44.5c6.54,12.48,14.88,24.89,27.57,31.76C189.3,199.49,189.81,198.63,189.24,198.32Z" fill="#111224"></path><rect x="269.17" y="113.22" width="3.28" height="78.62" fill="#404048"></rect><circle cx="270.55" cy="111.3" r="9.75" fill="#06b6d4"></circle><circle cx="266.15" cy="107.58" r="2.02" fill="#fff"></circle><path d="M278,105A9.66,9.66,0,0,1,273,117a9.1,9.1,0,0,1-11.55-2.2A9.75,9.75,0,1,0,278,105Z" fill="#3e3e4a" opacity="0.4"></path><path d="M274.77,171.79l3.55,21.38s-2.11,1.38-8.71,1.61-6.27-2-6.27-2l3.51-21Z" fill="#3e3e4a"></path><ellipse cx="270.81" cy="171.79" rx="3.96" ry="1.99" fill="#55555f"></ellipse><ellipse cx="270.8" cy="193.32" rx="7.52" ry="3.78" fill="#3e3e4a"></ellipse><path d="M106.29,206.66a104.3,104.3,0,0,1,11.85,6.2c2.55,1.57,5.06,3.19,7.7,4.58l25-14.55-32.56-30.7L78.38,191C85.66,194.76,98.84,203.28,106.29,206.66Z" opacity="0.68" fill="url(#linear-gradient-5)" style="mix-blend-mode: multiply;"></path><path d="M138.53,112.79a.72.72,0,0,1,.66-.45,1.61,1.61,0,0,0,.39,1.66,8.32,8.32,0,0,0,2.62,1.82c.44.34.9.67,1.35,1a1.39,1.39,0,0,0,1,.24,4.73,4.73,0,0,0,1.37,1.22,13.22,13.22,0,0,1,2.14,1.52c.51.45,1.71,1.37,1.35,2s-1.25.42-2.13,0l.21.26c.66.82,1,2.25-.49,2.3a1.35,1.35,0,0,1-.16,1.52c-.84.7-1.5,0-1.88-.4a1.37,1.37,0,0,1-1.22.35,1.19,1.19,0,0,1-.85-.64c-2.82,1.38-3.85-5.63-4.1-8.27C138.39,115.58,138,113.95,138.53,112.79Z" fill="#f9635c"></path><path d="M144,122.4a1.09,1.09,0,0,1,.44-.75,3.13,3.13,0,0,1-1.89-1.09,2.8,2.8,0,0,1-.34-2.74.22.22,0,0,1,.41.16,2.36,2.36,0,0,0,.4,2.46,3.44,3.44,0,0,0,2.2.91l.08,0a.88.88,0,0,1,0-.15c.36-1.07,1.61-.26,2,.32.16.23-.18.51-.35.28s-.54-.69-.92-.67c-.73,0-.08,1.17,0,1.38a16.63,16.63,0,0,0,1,1.74c.16.24-.19.52-.35.28a17.57,17.57,0,0,1-1.09-1.84,4.25,4.25,0,0,1-.38-.87c-1.82.06-.58,2.43-.19,3.39.11.26-.3.45-.41.18a8.81,8.81,0,0,1-.76-2.56h0c-.65-.11-1.41,0-1.3.84a7.68,7.68,0,0,0,.43,1.43c.09.27-.32.45-.41.18-.22-.68-.68-1.57-.39-2.29S143.4,122.3,144,122.4Z" fill="#111224"></path><path d="M138.4,100.7c1.17,6.14,3.18,11.65,7,16.4-.23.63-1.66,3.53-8.81,3.53l-6.42-8.47Z" fill="#e25096"></path><path d="M124.41,82.82C122.47,83,117,80,113.12,88.35s3.48,11.77-.87,13.87-8.91,4.15-5.65,9.54,10,7.67,12.75,2.24,8.18-19.33,6.41-29.07" fill="#111224"></path><path d="M139.31,181.44V191a3.8,3.8,0,0,1-3.71,2.62,3.06,3.06,0,0,1-3.17-2.68l-.76-8.83" fill="#f9635c"></path><path d="M130.34,190.33c.18-.75,1.65-1.54,1.91-1.55s.12,1.44.12,1.44c1.44,2.26,4.32,2.27,4.67,1.85s-1.18-2.59-.53-3.11a7,7,0,0,1,3.64-.53c.35.18-.38,2.65-.29,2.82.89,1.79,3.25,3.36,5,4.26s3.16,1.44,4.07,3.21a3.24,3.24,0,0,1,0,3.2c-.72,1-2.36,1.2-3.5,1.16-2.89-.1-5.68-1.53-8.16-2.91a39.79,39.79,0,0,1-6.41-4.1C130.46,195.73,130.16,191.09,130.34,190.33Z" fill="#06b6d4"></path><path d="M118.09,168.17a3,3,0,0,1,2.22-.32c.21.12-.58,1.19-.58,1.19.07,2.44,2.32,3.8,2.79,3.64s.29-2.57,1-2.69a6.36,6.36,0,0,1,3.1,1.29c.19.3-1.54,1.9-1.55,2.07-.14,1.82,1,4.15,1.89,5.66s1.79,2.61,1.68,4.42a3,3,0,0,1-1.46,2.53c-1,.47-2.41-.17-3.28-.73-2.21-1.44-3.73-3.86-5-6.1a36.29,36.29,0,0,1-3.1-6.22C115.66,172.45,117.6,168.68,118.09,168.17Z" fill="#06b6d4"></path><path d="M130.34,190.33c.18-.75,1.65-1.54,1.91-1.55s.12,1.44.12,1.44c1.44,2.26,4.32,2.27,4.67,1.85s-1.18-2.59-.53-3.11a7,7,0,0,1,3.64-.53c.35.18-.38,2.65-.29,2.82.89,1.79,3.25,3.36,5,4.26s3.16,1.44,4.07,3.21a3.24,3.24,0,0,1,0,3.2c-.72,1-2.36,1.2-3.5,1.16-2.89-.1-5.68-1.53-8.16-2.91a39.79,39.79,0,0,1-6.41-4.1C130.46,195.73,130.16,191.09,130.34,190.33Z" fill="#111224" opacity="0.68"></path><path d="M130.24,164.24l-5.36,8.51s-1.58,1.55-4.06,0-1.34-3-1.34-3l3.89-8.91" fill="#f9635c"></path><path d="M118.09,168.17a3,3,0,0,1,2.22-.32c.21.12-.58,1.19-.58,1.19.07,2.44,2.32,3.8,2.79,3.64s.29-2.57,1-2.69a6.36,6.36,0,0,1,3.1,1.29c.19.3-1.54,1.9-1.55,2.07-.14,1.82,1,4.15,1.89,5.66s1.79,2.61,1.68,4.42a3,3,0,0,1-1.46,2.53c-1,.47-2.41-.17-3.28-.73-2.21-1.44-3.73-3.86-5-6.1a36.29,36.29,0,0,1-3.1-6.22C115.66,172.45,117.6,168.68,118.09,168.17Z" fill="#111224" opacity="0.68"></path><path d="M136.5,116.25c2.26.65,8.58,30,7.37,33.07s-15.8,25-17.89,24.14-6.16-9.14-5.22-11.1,9-17.07,9-17.07l-1.64-27.62" fill="#06b6d4"></path><path d="M120.76,119.52s4.8,61.55,7.34,64.58,11.44,4,12.74,3-3.77-61-10-69.39" fill="#06b6d4"></path><path d="M136.5,116.25c.75-.76,5.4-19.92,2.35-24.14s-16.92,2.79-19,5.83,1.45,16.33,1.71,18.31S130.92,121.88,136.5,116.25Z" fill="#f877af"></path><path d="M134.14,86c.1.5.44,8.8-3.61,10.19s-8.8-7.15-6.83-11.22S133,80.29,134.14,86Z" fill="#f9635c"></path><path d="M126.85,87.39c-.68.89-.7,3.22-.45,4.33a7.66,7.66,0,0,1,0,1.53,11.51,11.51,0,0,1,.07,1.33,8.76,8.76,0,0,1-1.07-1,.47.47,0,0,1-.49.05,2.47,2.47,0,0,1-.44-.28c-.34-.23-.74-.36-1.09-.57A3.47,3.47,0,0,1,122,90.81a9.29,9.29,0,0,1-.63-2.68,9.7,9.7,0,0,1,1-5.31c2.19-4.18,7.79-4.27,11.23-1.53-.17-.36-.58-1.45.62-1.19,1.43.3,2.57,3.19,2.57,3.19.21-.51-.5-1.89-.5-1.89s1.69.3,1.41,3.05-3.56,4.44-4.62,2.07-1.37-2.06-1.37-2.06c1.08,1.95.06,3.37-2.33,3.82A2.29,2.29,0,0,1,126.85,87.39Z" fill="#111224"></path><path d="M124.94,89.78a1.36,1.36,0,0,1,2.11-.38,4.94,4.94,0,0,1,1,1.75.79.79,0,0,1,0,.55,1.11,1.11,0,0,1,0,1.06,1.07,1.07,0,0,1-1.43.37C125.6,92.61,124.23,91,124.94,89.78Z" fill="#f9635c"></path><circle cx="125.98" cy="91.09" r="2.74" fill="#06b6d4"></circle><path d="M132.16,80.27s-6.73,1.4-5.9,9.39L124.15,89s-1.5-6.84,5.86-9.65A2.26,2.26,0,0,1,132.16,80.27Z" fill="#06b6d4"></path><path d="M120,136.6a.69.69,0,0,1,.81-.38c0-.87,1.43-1.13,1.59-.21q.09.5.21,1a.77.77,0,0,1,1.18.17.69.69,0,0,1,.54.55l.53,2.13,0,0a4.8,4.8,0,0,0,1.75,2.06,12.26,12.26,0,0,1,1.93,1.49c.45.43,1.54,1.33,1.18,1.86s-1.17.34-2,0l.18.24c.58.78,1,2-.2,2.43a.84.84,0,0,1-.29,1.1c-.8.62-1.47.17-2-.45a1.27,1.27,0,0,1-1.14.28,2.41,2.41,0,0,1-1-1c-2.43.84-3.09-4.94-3.23-7.4C119.75,139.18,119.45,137.65,120,136.6Z" fill="#f9635c"></path><path d="M119.84,97.94s-4.22,3.32-4.44,14.85S119.18,141,119.18,141s8.57.46,8.92-1.28-2.8-27.41-2.8-27.41" fill="#f877af"></path><path d="M126.61,103.42c.05-.64-.95-.64-1,0a137.58,137.58,0,0,0,1.62,34.69c.11.63,1.07.36,1-.27A136.53,136.53,0,0,1,126.61,103.42Z" fill="#e25096"></path><path d="M154.89,237.43a104.3,104.3,0,0,1,11.85,6.2c2.55,1.57-4.58-6.08-1.94-4.69l29.64-17.73L166.89,203,127,221.81C134.26,225.54,147.44,234.06,154.89,237.43Z" opacity="0.68" fill="url(#linear-gradient-6)" style="mix-blend-mode: multiply;"></path><path d="M163.27,197.19s-.32,4.49.51,5.95,2.19,3.45,3.71,2.77.21-2.4-.68-3.6a1.91,1.91,0,0,1,.91-3C169,198.75,166.63,196.46,163.27,197.19Z" fill="#db5531"></path><path d="M191,210.71c-.06.29-.87,7.49-.34,8.73s2.87,3.08,3.78,1.76.44-1.95-.29-2.81c0,0,.79-6.19,1-6.86" fill="#db5531"></path><path d="M198.47,205.39l-.09.14c-1.34,1.93-1.27,4.34-2.29,6.42-.84,1.7-2.32,3.71-4.35,4-4.84.72-8.13.31-13-3.81s-8.64-11.73-12-13.27-5.56,2.78-8.33,1.65-2.78-2-2.78-2a8.77,8.77,0,0,0,2.06-4.09c.41-2.37,3-7.92,10.08-5.56S183.81,199.5,188,199s6.17-6.79,10.08-3.7a6.87,6.87,0,0,1,2.85,5.54C200.87,202.7,199.5,204,198.47,205.39Z" fill="#ff815a"></path><path d="M185.54,215.31c0,.29.59,7.52,1.35,8.63s3.41,2.47,4.05,1,.06-2-.82-2.7c0,0-.41-6.22-.29-6.93" fill="#ff815a"></path><path d="M155.62,198.54s-.32,4.49.51,5.95,2.19,3.45,3.71,2.77.21-2.4-.68-3.6a1.91,1.91,0,0,1,.91-3C161.33,200.11,159,197.82,155.62,198.54Z" fill="#ff815a"></path><path d="M161.06,189.27s-3.32,1.33-4.78-.43.06-3.69.76-4.28c0,0-3.93-.12-3.69,4.28s5.82,3.58,7.19,2.34" fill="#ff815a"></path><path d="M205.74,195.46s1.37-4-2-5.37-4.18,1.35-4.18,1.35Z" fill="#db5531"></path><path d="M191.62,199.86s-2.48-5.62,4.83-8.43c0,0,3.06-2.43,5.8-.76s3.64,3.49,3.49,4.78c0,0,5.85,3.49,5.39,4.4a4.9,4.9,0,0,1-5.47,3c-3.49-.68-7.14-1.29-7.14-1.29" fill="#ff815a"></path><path d="M198.37,192.74a3.1,3.1,0,0,0-3-.68c-3,.85-7.43,6.6-3.54,9,2.05,1.27,4.55-1,5.8-2.45a8.38,8.38,0,0,0,1.76-2.73A3.19,3.19,0,0,0,198.37,192.74Z" fill="#db5531"></path><path d="M211.13,199.86a2.26,2.26,0,0,0-.78-1.19c-.67-.56-1.74-.26-1.66.6s1.44,2.21,1.77,1.72S211.13,199.86,211.13,199.86Z" fill="#db5531"></path><path d="M198.46,205.38c-4.44,1.34-7.55-2.56-8.38-6.46-.13-.63-1.1-.36-1,.27,1,4.45,4.67,8.65,9.61,7.16A.5.5,0,0,0,198.46,205.38Z" fill="#111224"></path><path d="M317.68,186l-8.6-8.11-39.91,18.85c4.09,2.09,10,5.7,15.79,9.06A291.25,291.25,0,0,0,317.68,186Z" opacity="0.68" fill="url(#linear-gradient-7)" style="mix-blend-mode: multiply;"></path><rect x="197.6" y="74.04" width="10.81" height="71.65" rx="2.01" ry="2.01" fill="#bc532a"></rect><path d="M229.69,88.7c-2.49-10.81-13.56-58.46-33.18-44.45-10.05,7.17-12.89,18.39-16.91,29.35-3.33,9.08-6.09,18.64-6.25,28.38-.32,19.83,19.85,22.25,35.28,22.17,8.9,0,21.59-5.29,23.67-15,1.25-5.83-.88-12.7-2.13-18.4Q229.93,89.75,229.69,88.7Z" fill="#2c9135"></path><path d="M230.63,90.8q-.23-1.05-.47-2.11c-2.21-9.56-11.12-47.92-26.72-47,4.63,20.22,11.46,41.59,7.82,62.28A47.33,47.33,0,0,1,203,124c2.07.1,4.12.13,6.09.13,8.9,0,21.59-5.29,23.67-15C234,103.38,231.88,96.51,230.63,90.8Z" fill="#156819"></path><rect x="226.23" y="129.94" width="7.54" height="49.95" rx="1.74" ry="1.74" fill="#bc532a"></rect><path d="M248.6,140.16c-1.74-7.54-9.45-40.76-23.14-31-7,5-9,12.82-11.79,20.47-2.32,6.33-4.25,13-4.36,19.79-.22,13.82,13.84,15.51,24.6,15.46,6.2,0,15.05-3.69,16.5-10.42.87-4.06-.61-8.85-1.48-12.83Q248.77,140.9,248.6,140.16Z" fill="#2c9135"></path><path d="M249.26,141.63q-.16-.73-.33-1.47c-1.54-6.67-7.75-33.41-18.63-32.75,3.23,14.1,8,29,5.45,43.42a33,33,0,0,1-5.75,14c1.44.07,2.87.09,4.24.09,6.2,0,15.05-3.69,16.5-10.42C251.62,150.4,250.13,145.61,249.26,141.63Z" fill="#156819"></path><rect x="307.81" y="117.35" width="10.33" height="68.49" rx="2.01" ry="2.01" fill="#bc532a"></rect><path d="M338.48,131.37c-2.38-10.34-13-55.88-31.72-42.49-9.61,6.86-12.32,17.58-16.17,28.06-3.18,8.68-5.83,17.82-6,27.13-.3,19,19,21.27,33.72,21.2,8.51,0,20.64-5.06,22.62-14.29,1.2-5.57-.84-12.14-2-17.59Q338.72,132.37,338.48,131.37Z" fill="#2c9135"></path><path d="M339.38,133.37q-.22-1-.45-2c-2.11-9.14-10.63-45.81-25.54-44.91,4.43,19.33,11,39.75,7.48,59.53A45.24,45.24,0,0,1,313,165.14c2,.1,3.94.13,5.82.12,8.51,0,20.64-5.06,22.62-14.29C342.61,145.4,340.57,138.83,339.38,133.37Z" fill="#156819"></path><path d="M134.15,124.24c-.15-.62-1.12-.36-1,.27A240.54,240.54,0,0,1,140,187.1a.5.5,0,0,0,1,0A241.6,241.6,0,0,0,134.15,124.24Z" fill="#111224"></path></g></g></svg>