<svg width="79" height="47" viewBox="0 0 79 47" fill="none" xmlns="http://www.w3.org/2000/svg">
<path d="M35.184 9.56C36.2933 11.8213 36.848 14.3387 36.848 17.112C36.848 19.8853 36.2933 22.4027 35.184 24.664C34.0747 26.8827 32.6453 28.6533 30.896 29.976C27.3547 32.7067 23.6853 34.072 19.888 34.072H11.888V41.304C11.888 42.2853 11.8453 43.032 11.76 43.544C11.7173 44.0133 11.5253 44.568 11.184 45.208C10.5867 46.36 8.92267 46.936 6.192 46.936C3.20533 46.936 1.456 46.1467 0.944 44.568C0.688 43.8427 0.56 42.7333 0.56 41.24V5.72C0.56 4.73866 0.581333 4.01333 0.624 3.544C0.709333 3.032 0.922667 2.456 1.264 1.816C1.86133 0.663998 3.52533 0.0879974 6.256 0.0879974H19.952C23.7067 0.0879974 27.3547 1.45333 30.896 4.184C32.6453 5.50667 34.0747 7.29867 35.184 9.56ZM19.952 22.744C21.232 22.744 22.4907 22.2747 23.728 21.336C24.9653 20.3973 25.584 18.9893 25.584 17.112C25.584 15.2347 24.9653 13.8267 23.728 12.888C22.4907 11.9067 21.2107 11.416 19.888 11.416H11.888V22.744H19.952Z" fill="white"/>
<path d="M74.4055 21.848C76.9228 24.8347 78.1815 28.184 78.1815 31.896C78.0962 36.1627 76.6242 39.7467 73.7655 42.648C70.9495 45.5067 67.5148 46.936 63.4615 46.936H46.6295C43.6428 46.936 41.8935 46.1253 41.3815 44.504C41.1255 43.7787 40.9975 42.6693 40.9975 41.176V5.656C40.9975 4.632 41.0188 3.88533 41.0615 3.416C41.1468 2.94666 41.3602 2.392 41.7015 1.752C42.2988 0.599998 43.9628 0.0239983 46.6935 0.0239983H62.8215C66.7468 0.0239983 70.0322 1.38933 72.6775 4.12C75.4508 6.89333 76.8375 10.2213 76.8375 14.104C76.8375 16.92 76.0268 19.5013 74.4055 21.848ZM66.8535 31.256C66.8535 30.232 66.7255 29.4213 66.4695 28.824C66.2562 28.2267 65.8722 27.8 65.3175 27.544C64.4642 27.2027 63.2695 27.032 61.7335 27.032C60.1975 27.032 59.0455 26.7333 58.2775 26.136C57.5095 25.5387 57.1255 24.3227 57.1255 22.488C57.1255 20.6107 57.5095 19.3733 58.2775 18.776C59.0882 18.1787 60.4108 17.88 62.2455 17.88C63.9522 17.88 64.9762 17.432 65.3175 16.536C65.4455 16.0667 65.5095 15.2987 65.5095 14.232C65.5095 13.1653 65.1468 12.4187 64.4215 11.992C63.7388 11.5653 62.6935 11.352 61.2855 11.352H52.3255V35.608H62.8215C65.5095 35.608 66.8535 34.1573 66.8535 31.256Z" fill="#2563EB"/>
</svg>
